<svg width="122.9" height="107.5" xmlns="http://www.w3.org/2000/svg" xml:space="preserve" version="1.1">

 <g>
  <title>Layer 1</title>
  <g id="svg_1">
   <path id="svg_2" d="m4.03605,7.76014c-2.1,0 -3.9,-1.8 -3.9,-4c0,-2.1 1.8,-3.9 3.9,-3.9l10.2,0c0.1,0 0.3,0 0.4,0c3.6,0.1 6.8,0.8 9.5,2.5c3,1.9 5.2,4.8 6.4,9.1c0,0.1 0,0.2 0.1,0.3l1,4l87.5,0c2.2,0 3.9,1.8 3.9,3.9c0,0.4 -0.1,0.8 -0.2,1.2l-10.2,41.1c-0.4,1.8 -2,3 -3.8,3l0,0l-64,0c1.4,5.2 2.8,8 4.7,9.3c2.3,1.5 6.3,1.6 13,1.5l0.1,0l0,0l45.2,0c2.2,0 3.9,1.8 3.9,3.9c0,2.2 -1.8,3.9 -3.9,3.9l-45.2,0l0,0c-8.3,0.1 -13.4,-0.1 -17.5,-2.8c-4.2,-2.8 -6.4,-7.6 -8.6,-16.3l0,0l-13.4,-50.7c0,-0.1 0,-0.1 -0.1,-0.2c-0.6,-2.2 -1.6,-3.7 -3,-4.5c-1.4,-0.9 -3.3,-1.3 -5.5,-1.3c-0.1,0 -0.2,0 -0.3,0l-10.2,0l0,0zm92.1,80.4c5.3,0 9.6,4.3 9.6,9.6c0,5.3 -4.3,9.6 -9.6,9.6c-5.3,0 -9.6,-4.3 -9.6,-9.6c0,-5.3 4.3,-9.6 9.6,-9.6l0,0zm-42.1,0c5.3,0 9.6,4.3 9.6,9.6c0,5.3 -4.3,9.6 -9.6,9.6c-5.3,0 -9.6,-4.3 -9.6,-9.6c0,-5.3 4.3,-9.6 9.6,-9.6l0,0zm-20.2,-64.6l8.9,33.5l63.1,0l8.3,-33.5l-80.3,0l0,0z"/>
   <line id="svg_14" y2="97.87176" x2="96.05921" y1="97.87176" x1="53.45037" fill="none"/>
  </g>
  <rect id="svg_12" height="20.00001" width="61.8182" y="88.20809" x="44.2843" fill="#ffffff"/>
  <path id="svg_11" d="m44.09927,97.66502l0,0c0,-5.40698 4.38323,-9.79021 9.79021,-9.79021l0,0c2.59652,0 5.0867,1.03147 6.92272,2.86749c1.83602,1.83602 2.86749,4.3262 2.86749,6.92272l0,0c0,5.40698 -4.38323,9.79021 -9.79021,9.79021l0,0c-5.40698,0 -9.79021,-4.38323 -9.79021,-9.79021zm4.89511,0l0,0c0,2.70349 2.19161,4.89511 4.89511,4.89511c2.70349,0 4.89511,-2.19161 4.89511,-4.89511c0,-2.70349 -2.19161,-4.89511 -4.89511,-4.89511l0,0c-2.70349,0 -4.89511,2.19161 -4.89511,4.89511z" fill="#000000"/>
  <path id="svg_13" d="m86.40649,97.66503l0,0c0,-5.40698 4.38323,-9.79021 9.79021,-9.79021l0,0c2.59652,0 5.0867,1.03147 6.92272,2.86749c1.83602,1.83602 2.86749,4.3262 2.86749,6.92272l0,0c0,5.40698 -4.38323,9.79021 -9.79021,9.79021l0,0c-5.40698,0 -9.79021,-4.38323 -9.79021,-9.79021zm4.89511,0l0,0c0,2.70349 2.19161,4.89511 4.89511,4.89511c2.70349,0 4.89511,-2.19161 4.89511,-4.89511c0,-2.70349 -2.19161,-4.89511 -4.89511,-4.89511l0,0c-2.70349,0 -4.89511,2.19161 -4.89511,4.89511z" fill="#000000"/>
 </g>
</svg>